<svg xmlns="http://www.w3.org/2000/svg" width="295.654" height="247.743" viewBox="0 0 295.654 247.743">
  <g id="grain-svgrepo-com" transform="matrix(0.848, 0.53, -0.53, 0.848, 113.3, -28.911)">
    <path id="Path_2" data-name="Path 2" d="M155.276,34.985a24.764,24.764,0,0,0,20.679-20.679L179.907,0l-14.3,3.952a24.772,24.772,0,0,0-20.683,20.679l-1.73,6.27h0L1.166,172.928a3.975,3.975,0,1,0,5.622,5.622L148.473,36.865Zm-2.529-8.93a16.856,16.856,0,0,1,14.274-14.274l1.487-.382-.382,1.483a16.856,16.856,0,0,1-14.274,14.274l-1.487.382Z" transform="translate(0 34.091)" fill="#fff"/>
    <path id="Path_3" data-name="Path 3" d="M12.1,55.06l7.32-12.9a24.765,24.765,0,0,0,0-29.247L12.1,0,4.78,12.91a24.759,24.759,0,0,0,0,29.247Zm-.779-37.621.783-1.32.779,1.32a16.866,16.866,0,0,1,0,20.19L12.1,38.945l-.779-1.316A16.86,16.86,0,0,1,11.321,17.439Z" transform="translate(117.236 20.601)" fill="#fff"/>
    <path id="Path_4" data-name="Path 4" d="M12.906,4.783,0,12.1l12.906,7.32A24.83,24.83,0,0,0,27.53,24.2a24.83,24.83,0,0,0,14.624-4.779l12.91-7.32-12.91-7.32A24.747,24.747,0,0,0,12.906,4.783Zm24.719,8.1a16.86,16.86,0,0,1-20.186,0l-1.32-.779,1.32-.779a16.836,16.836,0,0,1,20.186,0l1.32.779Z" transform="translate(138.143 72.372)" fill="#fff"/>
    <path id="Path_5" data-name="Path 5" d="M12.1,55.064l7.32-12.91a24.753,24.753,0,0,0,0-29.243L12.1,0,4.777,12.91a24.765,24.765,0,0,0,0,29.243Zm-.779-37.625.779-1.32.783,1.32a16.854,16.854,0,0,1,0,20.182l-.783,1.32-.779-1.32A16.854,16.854,0,0,1,11.318,17.439Z" transform="translate(91.936 45.904)" fill="#fff"/>
    <path id="Path_6" data-name="Path 6" d="M12.906,4.777,0,12.1l12.906,7.32A24.833,24.833,0,0,0,27.534,24.2a24.85,24.85,0,0,0,14.628-4.779l12.9-7.32-12.9-7.32A24.784,24.784,0,0,0,12.906,4.777Zm24.719,8.1a16.854,16.854,0,0,1-20.19,0l-1.32-.779,1.32-.779a16.872,16.872,0,0,1,20.19,0l1.32.779Z" transform="translate(112.844 97.677)" fill="#fff"/>
    <path id="Path_7" data-name="Path 7" d="M12.1,55.06l7.32-12.91a24.771,24.771,0,0,0,0-29.247L12.1,0,4.78,12.9a24.759,24.759,0,0,0,0,29.247Zm-.779-37.633.779-1.316.779,1.316a16.866,16.866,0,0,1,0,20.19l-.779,1.32-.783-1.32A16.86,16.86,0,0,1,11.321,17.427Z" transform="translate(66.63 71.211)" fill="#fff"/>
    <path id="Path_8" data-name="Path 8" d="M12.906,4.774,0,12.094l12.906,7.32A24.857,24.857,0,0,0,27.53,24.193a24.857,24.857,0,0,0,14.624-4.779l12.906-7.32L42.154,4.774A24.784,24.784,0,0,0,12.906,4.774Zm24.719,8.1a16.86,16.86,0,0,1-20.19,0l-1.32-.779,1.32-.779a16.866,16.866,0,0,1,20.19,0l1.32.779Z" transform="translate(87.54 122.983)" fill="#fff"/>
    <path id="Path_9" data-name="Path 9" d="M12.1,55.052l7.32-12.9a24.759,24.759,0,0,0,0-29.247L12.1,0,4.777,12.9a24.771,24.771,0,0,0,0,29.247Zm-.779-37.621.779-1.316.779,1.316a16.872,16.872,0,0,1,0,20.194L12.1,38.941l-.779-1.316A16.872,16.872,0,0,1,11.318,17.431Z" transform="translate(41.329 96.514)" fill="#fff"/>
    <path id="Path_10" data-name="Path 10" d="M12.906,4.78,0,12.1l12.906,7.32A24.83,24.83,0,0,0,27.53,24.2,24.83,24.83,0,0,0,42.154,19.42L55.06,12.1,42.154,4.78A24.759,24.759,0,0,0,12.906,4.78Zm24.723,8.1a16.866,16.866,0,0,1-20.19,0l-1.32-.779,1.32-.779a16.842,16.842,0,0,1,20.19,0l1.32.779Z" transform="translate(62.233 148.281)" fill="#fff"/>
    <path id="Path_11" data-name="Path 11" d="M12.1,55.068l7.32-12.91a24.753,24.753,0,0,0,0-29.243L12.1,0,4.78,12.91a24.753,24.753,0,0,0,0,29.243Zm-.783-37.625.783-1.32.783,1.32a16.854,16.854,0,0,1,0,20.182l-.783,1.32-.783-1.32A16.854,16.854,0,0,1,11.317,17.443Z" transform="translate(16.023 121.81)" fill="#fff"/>
    <path id="Path_12" data-name="Path 12" d="M12.906,4.777,0,12.1l12.906,7.32A24.83,24.83,0,0,0,27.53,24.2a24.841,24.841,0,0,0,14.628-4.779L55.064,12.1,42.157,4.777A24.778,24.778,0,0,0,12.906,4.777Zm24.719,8.1a16.842,16.842,0,0,1-20.19,0l-1.32-.779,1.32-.779a16.866,16.866,0,0,1,20.19,0l1.32.779Z" transform="translate(36.934 173.587)" fill="#fff"/>
    <path id="Path_13" data-name="Path 13" d="M3.977,30.445A3.965,3.965,0,0,0,6.788,29.28L29.28,6.788a3.975,3.975,0,0,0-5.622-5.622L1.166,23.658a3.976,3.976,0,0,0,2.811,6.787Z" transform="translate(139.597 0)" fill="#fff"/>
    <path id="Path_14" data-name="Path 14" d="M1.166,34.9a3.974,3.974,0,0,0,5.622,0L34.9,6.788A3.975,3.975,0,0,0,29.28,1.166L1.166,29.28A3.972,3.972,0,0,0,1.166,34.9Z" transform="translate(156.467 0)" fill="#fff"/>
    <path id="Path_15" data-name="Path 15" d="M29.28,1.166,1.166,29.28A3.975,3.975,0,1,0,6.788,34.9L34.9,6.788A3.975,3.975,0,0,0,29.28,1.166Z" transform="translate(178.96 22.492)" fill="#fff"/>
    <path id="Path_16" data-name="Path 16" d="M1.166,32.091a3.974,3.974,0,0,0,5.622,0l25.3-25.3a3.975,3.975,0,0,0-5.622-5.622l-25.3,25.3A3.972,3.972,0,0,0,1.166,32.091Z" transform="translate(181.771 0)" fill="#fff"/>
    <path id="Path_17" data-name="Path 17" d="M23.658,1.166,1.166,23.654a3.975,3.975,0,1,0,5.622,5.622L29.28,6.788a3.975,3.975,0,0,0-5.622-5.622Z" transform="translate(184.582 44.984)" fill="#fff"/>
  </g>
</svg>
